<svg fill="#000000" xmlns="http://www.w3.org/2000/svg"  viewBox="0 0 50 50" width="50px" height="50px"><path d="M 13 4 C 8.0414839 4 4 8.0414839 4 13 L 4 37 C 4 41.958516 8.0414839 46 13 46 L 37 46 C 41.958516 46 46 41.958516 46 37 L 46 13 C 46 8.0414839 41.958516 4 37 4 L 13 4 z M 13 6 L 37 6 C 40.802851 6 43.871253 9.0058092 43.988281 12.779297 C 43.376111 12.40218 42.990498 11.986028 42.400391 11.199219 C 42.342871 11.122559 42.168763 10.758518 41.921875 10.324219 C 41.674987 9.8899192 41.325554 9.3644239 40.796875 8.8652344 C 39.739518 7.8668553 37.970043 7 35 7 C 30.505952 7 26.774768 8.6046505 24.162109 10.636719 C 21.54945 12.668787 20 15.080128 20 17 C 20 17.286882 20.077947 17.529096 20.181641 17.75 L 14.25 17.75 A 0.50005 0.50005 0 0 0 14.107422 17.767578 C 13.643129 17.029713 13.002504 16.323481 11.880859 16.017578 A 0.50005 0.50005 0 0 0 11.732422 16 A 0.50005 0.50005 0 0 0 11.695312 16.003906 C 10.537992 16.132498 9.786052 16.300109 9.2617188 16.693359 C 8.9995521 16.889984 8.8063394 17.168873 8.7324219 17.470703 C 8.6890462 17.647819 8.688138 17.823982 8.7050781 18 L 6 18 L 6 13 C 6 9.1225161 9.1225161 6 13 6 z M 35 8 C 37.779957 8 39.239482 8.772379 40.109375 9.59375 C 40.544321 10.004435 40.834841 10.435065 41.052734 10.818359 C 41.270628 11.201654 41.386631 11.516941 41.599609 11.800781 C 42.358347 12.812433 42.958954 13.405586 44 13.931641 L 44 15.845703 C 39.824989 14.692577 36.598203 13.869531 33.900391 13.566406 C 32.480609 13.40688 31.193103 13.391829 29.984375 13.546875 C 28.775647 13.70192 27.644893 14.025565 26.537109 14.546875 C 25.161913 15.193784 23.177623 16.681561 21.865234 17.945312 C 21.759788 17.911036 21.632838 17.863461 21.501953 17.787109 C 21.216464 17.620574 21 17.425 21 17 C 21 15.669872 22.32555 13.331213 24.775391 11.425781 C 27.225232 9.5203495 30.744048 8 35 8 z M 31.857422 14.435547 C 32.46589 14.440821 33.106375 14.482107 33.787109 14.558594 C 36.431516 14.855718 39.697067 15.691405 44 16.882812 L 44 18.296875 C 43.215769 18.00955 41.261772 17.316418 38.484375 16.699219 C 36.776139 16.319611 34.906187 16.003162 33.123047 15.953125 C 31.339907 15.903085 29.643619 16.119597 28.277344 16.802734 C 23.6666 19.108107 22.309791 21.897702 21.386719 23.654297 C 20.965716 23.146063 20.767986 22.668082 20.701172 22.222656 C 20.613752 21.639891 20.746972 21.086494 20.982422 20.587891 C 21.453325 19.590683 22.3125 18.890625 22.3125 18.890625 A 0.50005 0.50005 0 0 0 22.349609 18.857422 A 0.50005 0.50005 0 0 0 22.353516 18.853516 C 23.552321 17.65471 25.739549 16.0286 26.962891 15.453125 C 28.488715 14.73509 30.032018 14.419724 31.857422 14.435547 z M 33.09375 16.984375 C 34.734149 17.026948 36.499115 17.292901 38.128906 17.648438 C 38.122889 17.649642 38.115443 17.651117 38.109375 17.652344 C 33.219982 18.056104 29.992981 19.19797 27.833984 20.509766 C 25.274222 22.065064 24.188641 23.876137 23.59375 24.708984 A 0.50005 0.50005 0 0 0 23.552734 25.222656 L 24.037109 26.191406 A 0.50005 0.50005 0 0 0 24.052734 26.222656 C 24.336706 26.790598 24.79711 28.227365 25.244141 29.742188 A 0.50005 0.50005 0 0 0 25.333984 30.033203 C 25.878094 31.902004 26.383365 33.847064 26.505859 34.582031 C 26.506904 34.588302 26.510639 34.597179 26.511719 34.603516 C 26.761096 35.850561 27.136295 37.790593 27.576172 39.675781 C 27.961705 41.328067 28.386537 42.89242 28.853516 44 L 27.666016 44 C 24.938116 36.517571 23.998047 27.945312 23.998047 27.945312 A 0.50005 0.50005 0 0 0 23.722656 27.552734 L 22 26.691406 L 22 24.623047 C 23.023509 22.784759 23.941191 20.087998 28.722656 17.697266 C 29.856381 17.130403 31.40813 16.940628 33.09375 16.984375 z M 11.691406 17.025391 C 12.825307 17.369395 13.389026 18.16695 13.689453 18.958984 C 13.993771 19.761277 13.995964 20.458702 13.996094 20.478516 L 13.837891 21.421875 C 13.719662 21.353592 13.589235 21.292255 13.445312 21.238281 L 12.480469 17.863281 A 0.50005 0.50005 0 0 0 11.996094 17.5 A 0.50005 0.50005 0 0 0 11.955078 17.501953 L 9.7070312 17.707031 C 9.7267778 17.62765 9.7517091 17.57782 9.8632812 17.494141 C 10.075774 17.334771 10.713781 17.148638 11.691406 17.025391 z M 40.351562 18.527344 C 41.204595 19.123067 41.54644 19.578696 41.746094 20.021484 C 41.317758 20.026384 40.960941 20.022583 40.3125 20.064453 C 39.817784 20.096373 39.312631 20.143813 38.867188 20.21875 C 38.421743 20.29368 38.048831 20.366534 37.722656 20.583984 C 37.347015 20.834408 36.993429 21.200473 36.601562 21.5 C 36.209697 21.799527 35.815333 22 35.5 22 C 34.63514 22 34.368024 21.719023 34.203125 21.410156 L 34.277344 21.447266 A 0.50005 0.50005 0 0 0 34.974609 21.158203 C 34.974609 21.158203 35.207783 20.497175 35.416016 20.052734 C 35.937872 19.444991 36.827841 19.02316 37.611328 18.791016 C 37.837743 18.72393 37.998671 18.698956 38.1875 18.658203 C 38.866944 18.597272 39.586803 18.553549 40.351562 18.527344 z M 11.632812 18.535156 L 12.34375 21.021484 C 12.229638 21.014147 12.123933 21 12 21 C 10.93008 21 10.056734 21.142837 9.3417969 21.353516 L 9.6875 18.751953 A 0.50005 0.50005 0 0 0 9.7109375 18.708984 L 11.632812 18.535156 z M 42.09375 18.712891 C 43.208749 19.063553 43.778373 19.272007 44 19.355469 L 44 22.810547 C 43.916282 22.764686 43.841554 22.719285 43.746094 22.673828 C 43.028652 22.332189 41.950758 22 40.5 22 C 38.943182 22 37.793437 22.8624 37.074219 23.787109 C 36.71461 24.249464 36.451809 24.730264 36.275391 25.15625 C 36.098972 25.582236 36 25.923611 36 26.25 A 0.50005 0.50005 0 0 0 36.291016 26.705078 C 39.419702 28.139059 41.684833 27.488933 43.056641 26.425781 C 43.438309 26.129989 43.741009 25.81053 44 25.496094 L 44 35.03125 C 42.485991 36.528871 39.670116 39 36 39 C 32.327778 39 30.269434 38.147833 29.099609 37.177734 C 27.929785 36.207636 27.607292 35.096877 27.494141 34.417969 C 27.371592 33.682677 27.006785 32.196729 26.574219 30.650391 C 27.098319 30.831563 27.755369 31 28.5 31 C 29.444444 31 30.235556 30.471475 30.822266 29.884766 C 31.408975 29.298056 31.807446 28.659694 31.974609 28.158203 A 0.50005 0.50005 0 0 0 31.916016 27.722656 C 31.673126 27.358323 31.349473 26.833674 30.929688 26.378906 C 30.509902 25.924139 29.958333 25.5 29.25 25.5 C 28.75 25.5 28.232485 25.498299 27.742188 25.568359 C 27.25189 25.638399 26.764336 25.778633 26.396484 26.146484 C 26.028633 26.514336 25.846323 27.003999 25.681641 27.498047 C 25.666344 27.543935 25.659199 27.577087 25.644531 27.623047 C 25.433128 27.007785 25.225935 26.452382 25.042969 26.054688 C 25.062059 26.021397 25.048269 26.033117 25.099609 25.960938 C 25.21757 25.795154 25.426177 25.549684 25.78125 25.265625 C 26.491396 24.697508 27.78908 23.977484 30.103516 23.490234 A 0.50005 0.50005 0 0 0 30.474609 23.158203 C 30.683937 22.530221 30.490049 21.891965 30.324219 21.328125 C 30.217772 20.966206 30.161932 20.852315 30.089844 20.669922 C 31.396575 20.067147 32.960318 19.515069 34.943359 19.115234 C 34.832951 19.2189 34.714056 19.311102 34.615234 19.429688 A 0.50005 0.50005 0 0 0 34.552734 19.527344 C 34.385992 19.860828 34.336486 20.039165 34.238281 20.310547 L 33.722656 20.052734 A 0.50005 0.50005 0 0 0 33.003906 20.4375 C 33.003906 20.4375 32.915436 21.05699 33.197266 21.701172 C 33.479093 22.345303 34.226852 23 35.5 23 C 36.184667 23 36.74785 22.647395 37.208984 22.294922 C 37.670118 21.942449 38.064981 21.557591 38.277344 21.416016 C 38.326174 21.383466 38.640756 21.268816 39.03125 21.203125 C 39.421744 21.137435 39.900966 21.09113 40.375 21.060547 C 41.323068 20.999381 42.25 21 42.5 21 A 0.50005 0.50005 0 0 0 42.974609 20.341797 C 42.817763 19.871258 42.61368 19.318482 42.09375 18.712891 z M 14.652344 18.75 L 21.177734 18.75 C 20.847405 19.054197 20.483948 19.306856 20.080078 20.162109 C 19.78428 20.788506 19.589368 21.547609 19.712891 22.371094 C 19.826595 23.129123 20.254113 23.916668 21 24.669922 L 21 27 A 0.50005 0.50005 0 0 0 21.277344 27.447266 L 23.044922 28.332031 C 23.071632 28.574415 23.397915 31.372513 24.164062 35.083984 C 22.125739 35.844887 20.565439 35.352981 19.664062 34.476562 C 19.719369 34.401401 19.722628 34.405638 19.78125 34.324219 C 20.068041 33.925897 20.355073 33.502743 20.580078 33.115234 C 20.805001 32.727681 21 32.4375 21 32 C 21 31.458333 20.792876 30.733052 20.496094 29.974609 C 20.199312 29.216167 19.876357 28.483327 19.277344 28.083984 C 18.957523 27.870771 18.397012 27.732683 17.880859 27.583984 A 0.50005 0.50005 0 0 0 17.652344 26.773438 C 17.585 26.751887 17.525735 26.741352 17.458984 26.720703 C 17.168974 24.788259 16.318501 23.42588 14.804688 22.626953 C 14.772811 22.511058 14.723593 22.393944 14.666016 22.277344 A 0.5009036 0.5009036 0 0 0 14.744141 22.082031 L 14.994141 20.582031 A 0.50005 0.50005 0 0 0 15 20.5 C 15 20.5 14.94968 19.652847 14.652344 18.75 z M 6 19 L 8.6445312 19 L 8.2753906 21.777344 C 8.1609579 21.835346 8.0562103 21.894737 7.9550781 21.955078 C 7.8661169 21.907861 7.7773402 21.857067 7.6875 21.826172 C 7.4158695 21.73276 7.1549603 21.696357 6.8789062 21.765625 C 6.5326726 21.852183 6.2436041 22.00611 6 22.181641 L 6 19 z M 10.75 19 A 0.75 0.75 0 0 0 10.75 20.5 A 0.75 0.75 0 0 0 10.75 19 z M 29.292969 21.414062 C 29.325189 21.510033 29.331811 21.502372 29.363281 21.609375 C 29.485306 22.024261 29.505096 22.410584 29.498047 22.634766 C 27.34807 23.144925 25.951262 23.848366 25.15625 24.484375 C 24.880429 24.705032 24.753822 24.880352 24.591797 25.066406 L 24.585938 25.052734 C 25.132355 24.266378 26.033649 23.149419 27.583984 22 L 28.5 22 A 0.50005 0.50005 0 0 0 28.853516 21.853516 L 29.292969 21.414062 z M 12 22 C 13.833333 22 14 22.833333 14 23 A 0.50005 0.50005 0 0 0 14.277344 23.447266 C 15.479949 24.048568 16.109816 24.926548 16.404297 26.435547 C 11.928905 25.311778 8.8782626 26.213426 6.9472656 27 C 6.8816356 26.690858 6.8505296 26.334645 6.9472656 26.072266 C 7.1774733 26.015586 7.4136108 25.974476 7.6152344 25.804688 C 7.9045604 25.561045 8.1651476 25.217828 8.4335938 24.748047 C 8.8886357 23.951723 8.9030255 23.227526 8.6640625 22.699219 C 9.357119 22.331683 10.396832 22 12 22 z M 7.1210938 22.734375 C 7.1160438 22.735675 7.2403494 22.729174 7.3632812 22.771484 C 7.4862132 22.813764 7.6119663 22.892034 7.6972656 22.992188 C 7.8678643 23.192491 8.0015265 23.490493 7.5664062 24.251953 C 7.3348524 24.657171 7.1266896 24.907705 6.9707031 25.039062 C 6.8147166 25.17042 6.7311699 25.1875 6.65625 25.1875 C 6.5292896 25.1875 6.2843609 25.026404 6 24.769531 L 6 23.650391 C 6.0672763 23.534971 6.4495445 22.902263 7.1210938 22.734375 z M 40.664062 23.009766 C 41.871798 23.034533 42.748343 23.305666 43.316406 23.576172 C 43.699999 23.758835 43.733683 23.820953 43.851562 23.916016 C 43.671976 24.287567 43.295699 24.976155 42.443359 25.636719 C 41.370627 26.468086 39.71703 26.999713 37.091797 25.923828 C 37.123327 25.791875 37.123267 25.72717 37.201172 25.539062 C 37.345066 25.191612 37.56664 24.781786 37.863281 24.400391 C 38.016877 24.20291 38.189372 24.015557 38.378906 23.84375 C 38.296696 24.04653 38.25 24.267839 38.25 24.5 C 38.25 25.466 39.034 26.25 40 26.25 C 40.966 26.25 41.75 25.466 41.75 24.5 C 41.75 24.141 41.640078 23.806297 41.455078 23.529297 L 40 24.5 L 40.664062 23.009766 z M 29.302734 26.507812 C 29.526292 26.5255 29.768173 26.680362 30.015625 26.90625 L 28.75 27.75 L 29.302734 26.507812 z M 27.359375 26.699219 C 27.137171 26.992642 27 27.353828 27 27.75 C 27 28.716 27.784 29.5 28.75 29.5 C 29.716 29.5 30.5 28.716 30.5 27.75 C 30.5 27.618134 30.471136 27.494628 30.443359 27.371094 C 30.603306 27.584041 30.75546 27.80699 30.900391 28.025391 C 30.767534 28.31768 30.525652 28.767317 30.115234 29.177734 C 29.639444 29.653525 29.055556 30 28.5 30 C 27.381441 30 26.485434 29.566306 26.207031 29.417969 C 26.193082 29.371525 26.180019 29.327488 26.166016 29.28125 A 0.50005 0.50005 0 0 0 26.224609 29.158203 C 26.36015 28.75158 26.483042 28.257905 26.630859 27.814453 C 26.778677 27.371001 26.971367 26.985664 27.103516 26.853516 C 27.160848 26.796182 27.253648 26.745478 27.359375 26.699219 z M 12.328125 26.996094 C 13.429409 27.013994 14.643852 27.149264 15.962891 27.457031 C 15.925014 27.470772 15.888971 27.49322 15.851562 27.509766 A 0.5009036 0.5009036 0 0 0 15.832031 27.505859 C 15.046486 27.374935 14.320905 27.343894 13.654297 27.386719 C 11.654473 27.515192 10.182137 28.313666 9.1875 29.109375 A 0.50005 0.50005 0 0 0 9.0039062 29.5625 C 9.1604904 30.815173 8.9168784 31.557141 8.5527344 32.039062 C 8.4516078 31.769834 8.3096845 31.507216 8.1210938 31.28125 C 8.28633 31.066948 8.4334729 30.831173 8.5136719 30.537109 C 8.6357576 30.089462 8.6240345 29.571344 8.4902344 28.902344 C 8.3665978 28.284161 7.8215698 27.957199 7.2695312 27.796875 C 8.4866756 27.368771 10.188228 26.961311 12.328125 26.996094 z M 16.654297 28.320312 C 16.787415 28.313747 16.936377 28.319574 17.091797 28.339844 C 17.713476 28.420934 18.443662 28.730019 18.722656 28.916016 C 18.873643 29.016673 19.300688 29.658833 19.566406 30.337891 C 19.832124 31.016948 20 31.791667 20 32 C 20 31.9375 19.91367 32.272274 19.716797 32.611328 C 19.519927 32.950382 19.244459 33.355353 18.96875 33.738281 C 18.834034 33.925386 18.781 33.98807 18.699219 34.091797 A 0.50005 0.50005 0 0 0 18.605469 34.179688 C 18.585383 33.999021 18.589177 33.96996 18.556641 33.742188 C 18.492731 33.294787 18.413383 32.829315 18.3125 32.425781 C 18.211617 32.022248 18.155292 31.698261 17.853516 31.396484 C 17.285946 30.828916 16.265366 30.297344 16.001953 29.460938 A 0.50005 0.50005 0 0 0 15.96875 29.314453 C 15.929708 29.116015 15.918315 28.906684 15.980469 28.669922 C 16.049519 28.5113 16.13272 28.436229 16.310547 28.376953 C 16.403905 28.345833 16.521179 28.326878 16.654297 28.320312 z M 13.771484 28.378906 C 14.154455 28.358035 14.572826 28.376509 15.007812 28.417969 C 14.90379 28.814511 14.905091 29.182602 14.978516 29.521484 C 14.768594 30.241864 14.642645 31.28146 14.972656 32.291016 C 14.344781 32.985635 13.711398 33.261879 13.318359 33.375 L 12.974609 32.341797 A 0.50005 0.50005 0 0 0 12.115234 32.179688 C 12.115234 32.179688 11.45958 32.949354 11.101562 33.808594 C 10.922555 34.238214 10.776154 34.722927 10.984375 35.222656 C 11.088485 35.472521 11.301721 35.695217 11.566406 35.822266 C 11.831096 35.949314 12.1375 36 12.5 36 C 13.85 36 14.914574 35.598505 15.746094 35.390625 C 16.577614 35.182745 17.068219 35.125209 17.679688 35.634766 A 0.50064424 0.50064424 0 0 0 17.771484 35.695312 L 17.998047 37.511719 C 17.989666 39.175252 16.199131 41 14.25 41 C 12.416585 41 10.518406 40.525367 9.8535156 40.371094 L 10.767578 39 L 12.25 39 C 12.833333 39 13.507604 38.870684 14.078125 38.566406 C 14.363385 38.414267 14.629109 38.214718 14.814453 37.927734 C 14.999797 37.64075 15.077786 37.252552 14.984375 36.878906 C 14.902595 36.551793 14.624089 36.348628 14.376953 36.255859 C 14.129817 36.163089 13.868579 36.132013 13.578125 36.121094 C 12.997217 36.099254 12.299402 36.175214 11.580078 36.287109 C 10.361336 36.476692 9.2131216 36.752282 8.5488281 36.916016 L 8.0722656 34.769531 C 8.3974779 34.530735 8.6052184 34.152398 8.6914062 33.769531 C 8.7299662 33.598239 8.7447722 33.420388 8.75 33.240234 C 9.4644278 32.638258 10.041885 31.506607 9.9511719 29.816406 C 10.833758 29.134504 12.049692 28.47274 13.771484 28.378906 z M 6.2910156 28.660156 C 6.5221836 28.661145 6.7498644 28.687311 6.9433594 28.738281 C 7.3303493 28.840226 7.4918541 29.008099 7.5097656 29.097656 C 7.6259655 29.678656 7.6142419 30.035538 7.5488281 30.275391 C 7.5036323 30.441109 7.418043 30.572992 7.3066406 30.708984 C 7.0205602 30.605775 6.705021 30.571803 6.3671875 30.625 C 6.247739 30.64381 6.1235697 30.68755 6 30.726562 L 6 28.693359 C 6.098801 28.684075 6.1905594 28.659727 6.2910156 28.660156 z M 35.308594 29.636719 C 34.858228 29.622209 34.447455 29.723359 34.109375 29.902344 C 33.433216 30.26031 33 30.847222 33 31.5 A 0.50005 0.50005 0 1 0 34 31.5 C 34 31.40278 34.191784 30.98969 34.578125 30.785156 C 34.964466 30.580623 35.499398 30.503562 36.251953 30.933594 A 0.50005 0.50005 0 1 0 36.748047 30.066406 C 36.249325 29.781422 35.758959 29.651224 35.308594 29.636719 z M 41.505859 29.994141 A 0.50005 0.50005 0 0 0 41.09375 30.208984 C 40.502786 31.036333 39.720338 31.816809 38.964844 32.339844 C 38.209349 32.862879 37.483797 33.086994 37.097656 33.009766 A 0.50005 0.50005 0 0 0 36.599609 33.199219 L 36 34 L 35 34 A 0.50005 0.50005 0 0 0 34.777344 34.052734 C 34.557158 34.162827 34.258215 34.282418 33.998047 34.369141 C 33.737879 34.455867 33.458333 34.5 33.5 34.5 C 33.25 34.5 32.356667 34.4702 31.777344 34.083984 A 0.50005 0.50005 0 1 0 31.222656 34.916016 C 32.143333 35.5298 33.25 35.5 33.5 35.5 C 33.791667 35.5 34.012121 35.41914 34.314453 35.318359 C 34.573866 35.231888 34.843385 35.117339 35.09375 35 L 36.25 35 A 0.50005 0.50005 0 0 0 36.650391 34.800781 L 37.285156 33.955078 C 38.03088 33.966908 38.792245 33.67448 39.535156 33.160156 C 40.404662 32.558191 41.247214 31.713667 41.90625 30.791016 A 0.50005 0.50005 0 0 0 41.505859 29.994141 z M 15.730469 30.902344 C 16.310943 31.55492 17.012231 31.969261 17.146484 32.103516 C 17.094704 32.051736 17.257133 32.321502 17.34375 32.667969 C 17.43037 33.014435 17.507274 33.455213 17.568359 33.882812 C 17.610137 34.175259 17.603619 34.202008 17.630859 34.449219 C 16.930278 34.168537 16.19143 34.249994 15.503906 34.421875 C 14.585426 34.651495 13.65 35 12.5 35 C 12.2375 35 12.075159 34.956942 11.998047 34.919922 C 11.920937 34.882912 11.91933 34.871234 11.90625 34.839844 C 11.8801 34.777074 11.88995 34.511786 12.023438 34.191406 C 12.127349 33.942016 12.210858 33.886598 12.359375 33.658203 L 12.525391 34.158203 A 0.50005 0.50005 0 0 0 13.082031 34.494141 C 13.082031 34.494141 14.758576 34.227562 15.890625 32.8125 A 0.50005 0.50005 0 0 0 15.947266 32.277344 C 15.745746 31.874306 15.69933 31.380615 15.730469 30.902344 z M 6.7753906 31.595703 C 6.8559755 31.605162 6.9285074 31.625669 6.9941406 31.652344 C 7.2566736 31.759044 7.4837457 32.030887 7.6210938 32.404297 C 7.6890733 32.589114 7.7285345 32.794452 7.7441406 32.992188 A 0.50005 0.50005 0 0 0 7.7441406 33.021484 C 7.7565973 33.211992 7.7491861 33.396271 7.7148438 33.548828 C 7.6454507 33.857089 7.538834 33.970933 7.4140625 34.001953 A 0.50005 0.50005 0 0 0 7.3554688 34.015625 C 6.8742588 34.102796 6.6470084 34.016878 6.4589844 33.847656 C 6.2716383 33.679045 6.1126944 33.350754 6 32.923828 L 6 31.796875 C 6.3240639 31.629399 6.5798195 31.572748 6.7753906 31.595703 z M 39.005859 34.494141 A 0.50005 0.50005 0 0 0 38.623047 34.669922 C 37.456103 36.00408 35.938 36 35.5 36 A 0.50005 0.50005 0 1 0 35.5 37 C 35.938 37 37.919897 36.9959 39.376953 35.330078 A 0.50005 0.50005 0 0 0 39.005859 34.494141 z M 6 34.732422 C 6.3058027 34.93211 6.6796714 35.04492 7.1074219 35.039062 L 7.359375 36.173828 C 6.8238189 36.575854 6.3498169 37.250534 6.1132812 38.226562 C 6.0431837 37.827737 6 37.419496 6 37 L 6 34.732422 z M 19.050781 35.275391 C 20.22616 36.344415 22.145379 36.842236 24.369141 36.066406 C 24.90876 38.527697 25.651089 41.288169 26.619141 44 L 16.085938 44 C 17.252975 43.552379 18.42669 42.883322 19.371094 41.833984 A 0.50005 0.50005 0 0 0 19.496094 41.4375 L 18.998047 37.449219 A 0.50005 0.50005 0 0 0 18.990234 37.394531 L 18.771484 35.640625 C 18.802402 35.60253 18.980309 35.363123 19.050781 35.275391 z M 44 36.416016 L 44 37 C 44 40.877484 40.877484 44 37 44 L 36.179688 44 C 35.046831 43.061117 34.996271 41.046428 35.001953 39.970703 C 35.326942 39.985208 35.650223 40 36 40 L 36 41.5 C 36 41.916667 36.171056 42.282951 36.396484 42.621094 C 36.621913 42.959236 36.908087 43.262637 37.277344 43.447266 A 0.50005 0.50005 0 0 0 37.621094 43.484375 C 38.197183 43.340353 39.252102 42.946156 40.208984 42.091797 C 41.165866 41.237437 42 39.892857 42 38 A 0.50005 0.50005 0 0 0 42 37.998047 C 42.774635 37.474119 43.445659 36.924332 44 36.416016 z M 13.539062 37.121094 C 13.758999 37.129394 13.92333 37.161033 14.005859 37.189453 C 14.011559 37.259313 14.016749 37.319525 13.974609 37.384766 C 13.917769 37.472786 13.792865 37.585733 13.609375 37.683594 C 13.242396 37.879315 12.666667 38 12.25 38 L 10.5 38 A 0.50005 0.50005 0 0 0 10.083984 38.222656 L 9.1503906 39.623047 L 8.765625 37.890625 C 9.4186797 37.730056 10.558842 37.457947 11.732422 37.275391 C 12.419348 37.168535 13.080909 37.10387 13.539062 37.121094 z M 7.6113281 37.310547 L 8.7832031 42.583984 C 8.0678897 42.043855 7.4608583 41.371765 6.9980469 40.599609 A 0.50005 0.50005 0 0 0 6.9960938 40.445312 C 6.8174617 38.837624 7.1815719 37.854924 7.6113281 37.310547 z M 28.162109 37.667969 C 28.260032 37.761312 28.353355 37.856431 28.462891 37.947266 C 29.590031 38.881968 31.339419 39.640198 33.988281 39.898438 C 33.954708 40.735878 33.898025 42.584726 34.84375 44 L 29.935547 44 C 29.486728 43.089537 28.979798 41.296234 28.548828 39.449219 C 28.408196 38.84651 28.287847 38.25981 28.162109 37.667969 z M 40.960938 38.630859 C 40.811332 39.8831 40.224656 40.73531 39.541016 41.345703 C 38.820364 41.989142 38.042954 42.269766 37.576172 42.408203 C 37.458405 42.313853 37.333693 42.224172 37.228516 42.066406 C 37.078944 41.842049 37 41.583333 37 41.5 L 37 39.939453 C 38.489492 39.778429 39.809568 39.267971 40.960938 38.630859 z M 18.279297 39.759766 L 18.470703 41.289062 C 16.578991 43.248906 13.673128 43.663994 11.978516 43.917969 C 11.268232 43.814602 10.594098 43.605417 9.9707031 43.306641 L 9.5410156 41.375 C 10.343321 41.562511 12.322937 42 14.25 42 C 15.920614 42 17.429251 41.060252 18.279297 39.759766 z"/></svg>